<svg xmlns="http://www.w3.org/2000/svg" xmlns:xlink="http://www.w3.org/1999/xlink" version="1.1" width="16pt" height="12.571442pt" viewBox="0 0 16 12.571442">
<defs>
<clipPath id="clip_0">
<path transform="matrix(1,0,0,-1,0,12.571442)" d="M11.541091 12.571442C10.016727 12.571442 8.714182 11.594347 7.998546 10.920713 7.282909 11.594347 5.983273 12.571442 4.459637 12.571442 1.833454 12.571442 0 10.925292 0 8.568885 0 5.972455 2.277091 4.294258 4.48 2.671 5.52 1.903843 6.596364 1.111179 7.421818 .232186 7.560728 .085033 7.764364 .000012 7.978182 .000012H8.020364C8.234909 .000012 8.437819 .085688 8.576 .232186 9.402909 1.111179 10.478546 1.904496 11.519274 2.671 13.721456 4.293604 16 5.971801 16 8.568885 16 10.925292 14.166546 12.571442 11.541091 12.571442Z" fill-rule="evenodd"/>
</clipPath>
</defs>
<g clip-path="url(#clip_0)">
<path transform="matrix(1,0,0,-1,0,12.571442)" d="M7.998546 10.920713 7.313131 10.192561 7.998546 9.547376 8.683961 10.192561 7.998546 10.920713ZM4.48 2.671 5.073621 3.475744 5.073214 3.476044 4.48 2.671ZM7.421818 .232186 6.692858-.452374 6.694636-.454258 7.421818 .232186ZM8.576 .232186 9.303455-.45397 9.304357-.453012 8.576 .232186ZM11.519274 2.671 12.112298 1.865814 12.112459 1.865933 11.519274 2.671ZM11.541091 13.571442C9.616881 13.571442 8.07114 12.362386 7.313131 11.648867L8.683961 10.192561C9.357224 10.826308 10.416574 11.571442 11.541091 11.571442V13.571442ZM8.683961 11.648867C7.926717 12.361665 6.383681 13.571442 4.459637 13.571442V11.571442C5.582865 11.571442 6.639102 10.827029 7.313131 10.192561L8.683961 11.648867ZM4.459637 13.571442C2.938687 13.571442 1.574072 13.092954 .577021 12.197996-.427938 11.29594-1 10.021473-1 8.568885H1C1 9.472704 1.344665 10.199514 1.912979 10.709636 2.489201 11.226855 3.354403 11.571442 4.459637 11.571442V13.571442ZM-1 8.568885C-1 6.945408-.278125 5.649755 .667616 4.589386 1.594518 3.550138 2.805066 2.663042 3.886786 1.865954L5.073214 3.476044C3.952025 4.302216 2.922573 5.065847 2.160202 5.92062 1.41667 6.754272 1 7.595932 1 8.568885H-1ZM3.886379 1.866254C4.944514 1.085721 5.941523 .347696 6.69286-.452372L8.150777 .916744C7.251205 1.874661 6.095486 2.721964 5.073621 3.475744L3.886379 1.866254ZM6.694636-.454258C7.033988-.813748 7.506399-.999988 7.978182-.999988V1.000012C8.022329 1.000012 8.087467 .983815 8.149 .918631L6.694636-.454258ZM7.978182-.999988H8.020364V1.000012H7.978182V-.999988ZM8.020364-.999988C8.494823-.999988 8.966001-.811735 9.303454-.453969L7.848546 .918342C7.909636 .983109 7.974995 1.000012 8.020364 1.000012V-.999988ZM9.304357-.453012C10.05747 .347537 11.054733 1.086911 12.112298 1.865814L10.92625 3.476184C9.902359 2.722081 8.748348 1.874822 7.847644 .917385L9.304357-.453012ZM12.112459 1.865933C13.193727 2.662629 14.404477 3.549569 15.331642 4.588776 16.27765 5.649103 17 6.944959 17 8.568885H15C15 7.595727 14.583077 6.753942 13.839269 5.920249 13.076616 5.065435 12.047003 4.301974 10.926087 3.476065L12.112459 1.865933ZM17 8.568885C17 10.021467 16.427945 11.295912 15.423113 12.197958 14.426179 13.092914 13.061743 13.571442 11.541091 13.571442V11.571442C12.645894 11.571442 13.510912 11.226895 14.08707 10.709675 14.655329 10.199543 15 9.47271 15 8.568885H17Z"/>
</g>
</svg>
